# xmcd
# 
# Track frame offsets:
#     150
#     35690
#     55697
#     90937
#     119045
#     142032
# 
# Disc length: 2393
# 
# Revision: 0
# Processed by: cddbd v1.5.2PL0 Copyright (c) Steve Scherf et al.
# Submitted via: fre:ac v1.0.31
# 
DISCID=4f095706
DTITLE=Sun Ra - Reflections In Blue
DYEAR=1993
DGENRE=Jazz
TTITLE0=State Street Chicago
TTITLE1=Nothin' from Nothin'
TTITLE2=Yesterdays
TTITLE3=Say It Isn't So
TTITLE4=I Dream Too Much
TTITLE5=Reflections in Blue
EXTD=YEAR: 1993
EXTT0=
EXTT1=
EXTT2=
EXTT3=
EXTT4=
EXTT5=
PLAYORDER=
